<svg width="40" height="40" viewBox="0 0 40 40" fill="none" xmlns="http://www.w3.org/2000/svg">
<path d="M39.5 20C39.5 30.7696 30.7696 39.5 20 39.5C9.23045 39.5 0.5 30.7696 0.5 20C0.5 9.23045 9.23045 0.5 20 0.5C30.7696 0.5 39.5 9.23045 39.5 20Z" stroke="#B9C3D1"/>
<path d="M24.1136 18.4863L23.8483 20.7137C23.8369 20.8171 23.7875 20.9127 23.7097 20.9819C23.632 21.0511 23.5313 21.0891 23.4272 21.0884H21.1115V27.6989C21.112 27.7779 21.0813 27.8538 21.0261 27.9102C20.9709 27.9666 20.8956 27.9989 20.8167 28H18.4567C18.4175 27.9995 18.3787 27.9912 18.3426 27.9756C18.3066 27.9601 18.2739 27.9376 18.2466 27.9095C18.2192 27.8813 18.1976 27.8481 18.1831 27.8116C18.1686 27.7751 18.1614 27.7361 18.162 27.6968L18.1746 21.0884H16.4209C16.3093 21.0884 16.2022 21.0441 16.1232 20.9651C16.0442 20.8861 15.9999 20.779 15.9999 20.6674V18.44C15.9999 18.3283 16.0442 18.2212 16.1232 18.1423C16.2022 18.0633 16.3093 18.0189 16.4209 18.0189H18.1641V15.8589C18.1641 13.36 19.6504 12 21.8272 12H23.6104C23.7221 12 23.8292 12.0444 23.9081 12.1233C23.9871 12.2023 24.0315 12.3094 24.0315 12.4211V14.2968C24.0315 14.4085 23.9871 14.5156 23.9081 14.5946C23.8292 14.6735 23.7221 14.7179 23.6104 14.7179H22.5178C21.3346 14.7368 21.1115 15.3032 21.1115 16.1495V18.0126H23.703C23.7622 18.0136 23.8204 18.0271 23.874 18.0521C23.9276 18.0771 23.9753 18.1132 24.014 18.1579C24.0527 18.2025 24.0816 18.2549 24.0988 18.3115C24.1159 18.3681 24.121 18.4276 24.1136 18.4863Z" fill="#B9C3D1"/>
</svg>
