<svg width="40" height="40" viewBox="0 0 40 40" fill="none" xmlns="http://www.w3.org/2000/svg">
<path d="M39.5 20C39.5 30.7696 30.7696 39.5 20 39.5C9.23045 39.5 0.5 30.7696 0.5 20C0.5 9.23045 9.23045 0.5 20 0.5C30.7696 0.5 39.5 9.23045 39.5 20Z" stroke="#B9C3D1"/>
<path d="M28.0448 16.05C27.7163 15.0301 26.6295 14.4273 25.6204 14.2868C22.0237 13.9044 18.3964 13.9044 14.7997 14.2868C13.7992 14.4273 12.7124 15.0388 12.384 16.05C11.8719 18.659 11.8719 21.3426 12.384 23.9517C12.7211 24.9693 13.8079 25.5743 14.8169 25.7148C18.4138 26.0951 22.0408 26.0951 25.6377 25.7148C26.6381 25.5743 27.725 24.9607 28.0534 23.9517C28.5626 21.3421 28.5597 18.6584 28.0448 16.05ZM18.2546 23.1457V16.8537L23.3776 19.9997C21.6512 21.0606 19.9745 22.0935 18.2546 23.1457Z" fill="#B9C3D1"/>
</svg>
