<svg width="40" height="40" viewBox="0 0 40 40" fill="none" xmlns="http://www.w3.org/2000/svg">
<path d="M39.5 20C39.5 30.7696 30.7696 39.5 20 39.5C9.23045 39.5 0.5 30.7696 0.5 20C0.5 9.23045 9.23045 0.5 20 0.5C30.7696 0.5 39.5 9.23045 39.5 20Z" stroke="#B9C3D1"/>
<path d="M23.2337 12H16.7663C15.5027 12.0017 14.2914 12.5044 13.3979 13.3979C12.5044 14.2914 12.0017 15.5027 12 16.7663V23.2337C12.0017 24.4973 12.5044 25.7086 13.3979 26.6021C14.2914 27.4956 15.5027 27.9983 16.7663 28H23.2337C24.4974 27.9989 25.7091 27.4964 26.6027 26.6027C27.4964 25.7091 27.9989 24.4974 28 23.2337V16.7663C27.9983 15.5027 27.4956 14.2914 26.6021 13.3979C25.7086 12.5044 24.4973 12.0017 23.2337 12ZM26.3916 23.2337C26.3916 24.0712 26.0589 24.8744 25.4667 25.4667C24.8744 26.0589 24.0712 26.3916 23.2337 26.3916H16.7663C15.9288 26.3916 15.1256 26.0589 14.5333 25.4667C13.9411 24.8744 13.6084 24.0712 13.6084 23.2337V16.7663C13.6084 15.9288 13.9411 15.1256 14.5333 14.5333C15.1256 13.9411 15.9288 13.6084 16.7663 13.6084H23.2337C24.0712 13.6084 24.8744 13.9411 25.4667 14.5333C26.0589 15.1256 26.3916 15.9288 26.3916 16.7663V23.2337Z" fill="#B9C3D1"/>
<path d="M19.9999 15.8633C19.1811 15.8629 18.3806 16.1053 17.6996 16.5599C17.0186 17.0146 16.4878 17.661 16.1743 18.4174C15.8608 19.1737 15.7786 20.0061 15.9383 20.8092C16.0979 21.6123 16.4921 22.3499 17.0711 22.9289C17.6501 23.5079 18.3877 23.9021 19.1908 24.0618C19.9939 24.2214 20.8263 24.1392 21.5827 23.8257C22.339 23.5122 22.9854 22.9814 23.4401 22.3004C23.8947 21.6194 24.1371 20.8189 24.1367 20.0001C24.1356 18.9033 23.6994 17.8517 22.9238 17.0762C22.1483 16.3006 21.0967 15.8644 19.9999 15.8633ZM19.9999 22.5264C19.5002 22.5264 19.0118 22.3783 18.5963 22.1007C18.1809 21.8231 17.8571 21.4285 17.6659 20.9669C17.4747 20.5053 17.4246 19.9973 17.5221 19.5073C17.6196 19.0172 17.8602 18.5671 18.2135 18.2137C18.5668 17.8604 19.017 17.6198 19.507 17.5224C19.9971 17.4249 20.505 17.4749 20.9667 17.6661C21.4283 17.8573 21.8228 18.1811 22.1004 18.5966C22.378 19.012 22.5262 19.5005 22.5262 20.0001C22.5262 20.6701 22.26 21.3127 21.7863 21.7865C21.3125 22.2603 20.6699 22.5264 19.9999 22.5264Z" fill="#B9C3D1"/>
<path d="M24.1622 16.8862C24.7273 16.8862 25.1854 16.4281 25.1854 15.863C25.1854 15.2979 24.7273 14.8398 24.1622 14.8398C23.5971 14.8398 23.139 15.2979 23.139 15.863C23.139 16.4281 23.5971 16.8862 24.1622 16.8862Z" fill="#B9C3D1"/>
</svg>
