<svg width="40" height="40" viewBox="0 0 40 40" fill="none" xmlns="http://www.w3.org/2000/svg">
<path d="M39.5 20C39.5 30.7696 30.7696 39.5 20 39.5C9.23045 39.5 0.5 30.7696 0.5 20C0.5 9.23045 9.23045 0.5 20 0.5C30.7696 0.5 39.5 9.23045 39.5 20Z" stroke="#B9C3D1"/>
<path d="M26.6831 12H13.6708C12.0113 12 10.6667 13.3496 10.6667 15.0146V22.1664C10.6667 23.8314 12.0113 25.181 13.6708 25.181H18.153L19.6827 27.6714C19.6827 27.6714 19.6991 27.7011 19.7325 27.7422C19.8221 27.8953 19.9866 28 20.1767 28C20.3669 28 20.5296 27.8972 20.6196 27.7454C20.658 27.7002 20.6713 27.6714 20.6713 27.6714L22.201 25.181H26.6831C28.3417 25.181 29.6873 23.8314 29.6873 22.1664V15.0146C29.6873 13.3496 28.3417 12 26.6831 12Z" fill="#B9C3D1"/>
<path d="M14.8913 17.2415C14.8913 17.2415 14.3721 17.2415 13.9013 17.7V15.8535H12.7368V20.705H13.9137V20.3247C13.9137 20.3247 14.1911 20.8261 14.8918 20.8261C14.8918 20.8261 16.533 20.7658 16.533 19.0158C16.533 19.0158 16.4726 17.2415 14.8918 17.2415H14.8913ZM14.6349 19.8019C14.2217 19.8019 13.8863 19.4669 13.8863 19.0532C13.8863 18.6396 14.2217 18.3051 14.6349 18.3051C15.0481 18.3051 15.3831 18.6401 15.3831 19.0532C15.3831 19.4664 15.0481 19.8019 14.6349 19.8019Z" fill="#8794A7"/>
<path d="M16.9063 15.7441V16.8666C16.9063 16.8666 17.4379 16.8424 17.4379 17.8323V20.7044H18.5604V17.5668C18.5604 17.5668 18.6084 15.7441 16.9068 15.7441H16.9063Z" fill="#8794A7"/>
<path d="M21.3045 17.2559C21.3045 17.2559 19.3804 17.2559 19.3804 19.0529C19.3804 19.0529 19.3182 20.8253 21.3045 20.8253C21.3045 20.8253 23.273 20.8226 23.273 19.0529C23.273 19.0529 23.337 17.2559 21.3045 17.2559ZM21.3045 19.8011C20.8913 19.8011 20.5559 19.4661 20.5559 19.0525C20.5559 18.6389 20.8913 18.3043 21.3045 18.3043C21.7177 18.3043 22.0527 18.6393 22.0527 19.0525C22.0527 19.4656 21.7177 19.8011 21.3045 19.8011Z" fill="#8794A7"/>
<path d="M26.4858 17.3741V17.6995C26.4858 17.6995 26.1513 17.2562 25.5087 17.2562C25.5087 17.2562 23.8611 17.1867 23.8611 19.0409C23.8611 19.0409 23.8428 20.7681 25.463 20.7681C25.463 20.7681 26.1239 20.795 26.4854 20.3243V20.5962C26.4854 20.5962 26.5672 21.4472 25.7431 21.4472H25.4625V22.4788H25.915C25.915 22.4788 27.6165 22.4971 27.6165 20.6598V17.3741H26.4849H26.4858ZM25.7898 19.8019C25.3766 19.8019 25.0416 19.4669 25.0416 19.0533C25.0416 18.6397 25.3766 18.3051 25.7898 18.3051C26.2029 18.3051 26.5379 18.6401 26.5379 19.0533C26.5379 19.4664 26.2029 19.8019 25.7898 19.8019Z" fill="#8794A7"/>
</svg>
