<svg width="72" height="72" viewBox="0 0 72 72" fill="none" xmlns="http://www.w3.org/2000/svg">
<g filter="url(#filter0_d_33_1396)">
<circle cx="36" cy="32" r="30" fill="#4B79EE"/>
<rect x="34.4082" y="21.2148" width="2.73667" height="3.48304" fill="#F0F5FA"/>
<circle cx="35.8998" cy="17.7318" r="3.73182" fill="#00347B"/>
<ellipse cx="35.8162" cy="25.7938" rx="4.36312" ry="2.09066" fill="#F0F5FA"/>
<rect x="45.4512" y="29.3389" width="9.99881" height="13.2711" rx="3" fill="#00347B"/>
<rect x="16" y="29.3389" width="9.99881" height="13.2711" rx="3" fill="#00347B"/>
<rect x="21.0898" y="25.7031" width="29.451" height="21.8156" rx="8" fill="#F0F5FA"/>
<rect x="24.3613" y="29.521" width="22.9064" height="12.7258" rx="6.36288" fill="#00347B"/>
<circle cx="41.723" cy="33.975" r="1.54527" fill="#02F4FF"/>
<circle cx="29.9066" cy="33.975" r="1.54527" fill="#02F4FF"/>
<path d="M33.0879 38.4282C33.9969 39.1554 36.6329 39.7008 38.6327 38.4282" stroke="#02F4FF" stroke-width="2" stroke-linecap="round"/>
<path d="M51.246 36.6396V43.9644C51.246 45.6212 49.9028 46.9644 48.246 46.9644H40.7969" stroke="#00347B" stroke-linecap="round"/>
<rect x="34.4062" y="43.6055" width="9.95153" height="6.26578" rx="3.13289" fill="#00347B"/>
</g>
<defs>
<filter id="filter0_d_33_1396" x="0" y="0" width="72" height="72" filterUnits="userSpaceOnUse" color-interpolation-filters="sRGB">
<feFlood flood-opacity="0" result="BackgroundImageFix"/>
<feColorMatrix in="SourceAlpha" type="matrix" values="0 0 0 0 0 0 0 0 0 0 0 0 0 0 0 0 0 0 127 0" result="hardAlpha"/>
<feOffset dy="4"/>
<feGaussianBlur stdDeviation="3"/>
<feComposite in2="hardAlpha" operator="out"/>
<feColorMatrix type="matrix" values="0 0 0 0 0 0 0 0 0 0 0 0 0 0 0 0 0 0 0.1 0"/>
<feBlend mode="normal" in2="BackgroundImageFix" result="effect1_dropShadow_33_1396"/>
<feBlend mode="normal" in="SourceGraphic" in2="effect1_dropShadow_33_1396" result="shape"/>
</filter>
</defs>
</svg>
