<svg width="202" height="32" viewBox="0 0 202 32" fill="none" xmlns="http://www.w3.org/2000/svg">
<path d="M20.1764 25.5088L12.3193 15.6416L19.8887 6.51465H14.5547L7.35044 15.5421V6.51465H3.28906V25.5088H7.35044V15.741L14.4108 25.5088H20.1764Z" fill="#201747"/>
<path d="M48.972 13.9406C50.145 13.9406 55.1581 14.692 55.1581 19.6753C55.1581 24.9349 50.1008 25.5095 50.1008 25.5095H38.2708V22.4377H47.7879C50.5434 22.4377 50.5213 19.819 50.5213 19.819C50.5213 16.935 47.2567 17.0566 47.2567 17.0566H43.6158C41.9448 17.0566 37.6289 16.4489 37.6289 12.0069C37.6289 6.65896 42.974 6.52637 42.974 6.52637H53.797V9.56499H44.9106C42.0333 9.56499 42.0887 11.797 42.0887 11.797C42.0887 11.797 42.1108 13.9738 44.6008 13.9738H48.9609L48.972 13.9406Z" fill="#201747"/>
<path d="M31.985 25.5091C34.8401 25.5091 37.4408 23.4208 37.4408 20.2053C37.4408 16.5369 34.7295 15.3877 34.7295 15.3877C34.7295 15.3877 36.8874 14.6474 36.6772 11.3547C36.3894 6.58125 30.989 6.50391 30.989 6.50391H20.5312V25.487C20.5312 25.487 29.5725 25.487 31.985 25.487V25.5091ZM24.3824 9.59778H29.6168C29.6168 9.59778 32.4609 9.46518 32.4609 11.8298C32.4609 13.8629 30.6681 13.9955 30.0926 14.0397H24.3824V9.59778ZM29.152 22.4153H24.3824V17.0783H30.2697C30.2697 17.0783 33.2466 17.1888 33.2466 19.7192C33.2466 22.2495 31.0112 22.4263 29.152 22.4263V22.4153Z" fill="#201747"/>
<path d="M86.0656 15.6087C86.0545 15.1114 85.9992 14.6031 85.9217 14.0949C85.9217 14.0949 85.9217 14.0949 85.9217 14.0728C85.8332 13.5313 85.7114 12.9789 85.5454 12.4374C85.2245 11.3767 84.7708 10.3159 84.1621 9.28831C82.4468 6.40438 79.8905 4.41546 77.2235 3.60884C77.2235 3.60884 71.1591 1.58678 67.8723 4.91269C67.817 4.97899 67.7506 5.04529 67.6953 5.11158C65.5816 5.86295 63.7556 7.1226 62.4498 8.72478C61.4317 9.96233 60.7234 11.3988 60.4025 12.9568C60.3804 13.0894 60.3029 13.4761 60.3029 13.5092C60.0594 14.9788 60.1148 16.2053 60.1148 16.2053C60.1148 16.2053 60.1148 16.2937 60.1148 16.3379C60.148 17.3987 60.314 18.4815 60.6349 19.5644C60.9558 20.6251 61.4096 21.6859 62.0182 22.7025C63.7446 25.5864 66.3009 27.5753 68.9569 28.393C68.9569 28.393 75.0323 30.415 78.308 27.0781C78.3633 27.0118 78.4187 26.9455 78.474 26.8902C80.5987 26.1389 82.4136 24.8792 83.7195 23.277C84.3281 22.5367 84.8261 21.7191 85.1913 20.8572C86.0102 19.023 86.1098 17.0009 86.0545 15.6087H86.0656ZM66.9317 6.28283C67.9941 5.79665 69.1671 5.40992 70.473 5.15578C72.4428 4.758 74.3573 4.70275 76.1168 4.93479C79.9901 5.44307 83.144 7.38779 84.638 10.3491C84.6491 10.3712 84.6601 10.4043 84.6712 10.4264C84.6822 10.4596 84.6712 10.4817 84.649 10.5038C84.6269 10.5148 84.5827 10.5038 84.5495 10.4706C84.5384 10.4485 84.5163 10.4154 84.5052 10.3933C83.2879 8.48169 81.3402 7.0342 78.9498 6.19444C76.5484 5.34362 73.6933 5.11158 70.6832 5.66406C69.1671 5.92925 67.8281 6.37123 66.644 6.94581C66.7214 6.72482 66.81 6.49278 66.9206 6.28283H66.9317ZM66.3784 8.49274C67.5846 7.94027 68.8905 7.48724 70.2516 7.15575C74.6671 6.06184 78.6178 6.60327 81.473 8.22755C83.4539 9.35461 84.8925 11.012 85.5786 13.0231C85.5786 13.0562 85.6008 13.0783 85.6118 13.1004C85.645 13.2109 85.6118 13.2441 85.5676 13.2551C85.5454 13.2551 85.5233 13.2551 85.5122 13.222C85.5122 13.1999 85.4901 13.1778 85.479 13.1557C84.8593 11.664 83.7969 10.3712 82.4026 9.38776C79.4921 7.33254 75.1319 6.58117 70.2406 7.85187C68.8905 8.21651 67.6068 8.69164 66.4226 9.25516C66.4226 9.19991 66.4116 9.15572 66.4005 9.10047C66.3784 8.89053 66.3784 8.69164 66.3784 8.48169V8.49274ZM79.2597 25.73C78.2084 26.2162 77.0243 26.603 75.7184 26.8571C73.7486 27.2438 71.8341 27.3101 70.0856 27.0781C66.2013 26.5698 63.0584 24.6251 61.5645 21.6638C61.5534 21.6417 61.5423 21.6086 61.5313 21.5865C61.5202 21.5533 61.5313 21.5202 61.5534 21.5091C61.5755 21.4981 61.6198 21.5091 61.653 21.5423C61.6641 21.5644 61.6862 21.5865 61.6973 21.6196C62.9146 23.5312 64.8623 24.9676 67.2416 25.8184C69.654 26.6692 72.5092 26.8902 75.5082 26.3488C77.0243 26.0836 78.3633 25.6416 79.5474 25.0671C79.47 25.2881 79.3814 25.5201 79.2708 25.73H79.2597ZM79.813 23.5201C78.5957 24.0726 77.3009 24.5256 75.9398 24.8571C71.5353 25.951 67.5735 25.4096 64.7184 23.7853C62.7375 22.6583 61.2989 20.9898 60.6128 19.0009C60.6128 18.9677 60.5906 18.9456 60.5906 18.9235C60.5574 18.8241 60.5906 18.7909 60.6349 18.7799C60.657 18.7799 60.6792 18.7799 60.6902 18.813C60.6902 18.8351 60.7124 18.8572 60.7234 18.8793C61.3432 20.3821 62.4055 21.6638 63.7999 22.6472C66.7104 24.7024 71.0705 25.4538 75.973 24.1831C77.312 23.8185 78.5957 23.3433 79.7909 22.7798C79.7909 22.8351 79.802 22.8793 79.813 22.9345C79.8352 23.1444 79.8352 23.3433 79.8352 23.5533L79.813 23.5201ZM85.8774 15.8738C85.8774 15.8738 85.8442 15.8517 85.8221 15.8296C85.8221 15.8075 85.811 15.7854 85.811 15.7744C85.468 14.4374 84.7708 13.2661 83.7969 12.2938C80.9971 9.52035 75.9398 8.4154 70.5947 9.70819C70.1852 9.80764 69.7868 9.91814 69.3995 10.0507C68.5585 10.327 67.7506 10.6474 66.987 11.012C67.153 11.3104 67.3412 11.5977 67.5625 11.8629C69.145 11.1115 70.9377 10.5701 72.819 10.327C74.0695 10.1612 75.2979 10.1391 76.471 10.2496C79.636 10.5369 82.3915 11.7745 84.0736 13.6418C85.1581 14.8352 85.7889 16.2937 85.811 17.9291C85.811 17.9733 85.811 18.0175 85.811 18.0617C85.811 18.1059 85.811 18.139 85.811 18.1832C85.811 18.2384 85.7668 18.2495 85.7336 18.2495C85.7114 18.2495 85.6893 18.2274 85.6782 18.2053C85.6782 18.1611 85.6782 18.1279 85.6672 18.0838C85.4901 16.7799 84.97 15.6197 84.1621 14.6252C83.1108 13.3214 81.5615 12.3159 79.7024 11.7082C77.4891 10.9899 74.811 10.8242 71.9559 11.3767C70.639 11.6198 69.3774 12.0065 68.2154 12.4927C68.5253 12.7579 68.8683 12.9899 69.2335 13.1778C70.5504 12.5921 72.0444 12.1943 73.6601 12.0286C76.8804 11.6971 79.9016 12.3711 82.0595 13.7192C82.8895 14.2385 83.5977 14.8573 84.14 15.5645C84.8814 16.5258 85.313 17.6418 85.3241 18.8572C85.3241 19.5423 85.2134 20.2053 84.9921 20.8461C84.9921 20.8682 84.97 20.8903 84.97 20.9124C84.9478 20.9345 84.9257 20.9566 84.9146 20.9456C84.8925 20.9456 84.8814 20.9124 84.8814 20.8793C84.8814 20.8572 84.8814 20.8351 84.8925 20.813C85.0032 20.3047 85.0364 19.7743 85.0032 19.244C84.9257 18.2605 84.5716 17.3434 84.0072 16.5479C83.8855 16.3711 83.7527 16.2053 83.6199 16.0396C81.5394 13.6308 77.4227 12.3601 73.0846 13.1667C72.2657 13.2993 71.48 13.4871 70.7386 13.7302C71.4136 13.8739 72.1329 13.9181 72.8633 13.8186C72.8633 13.8186 74.0474 13.6639 74.5343 13.5534C74.6339 13.5424 74.7778 13.5092 74.8553 13.5092H74.8885C75.5856 13.4429 77.7436 13.3214 79.9901 14.128C79.9901 14.128 82.5243 14.9899 83.6199 16.9014C83.6199 16.9014 83.8744 17.255 83.5092 17.7412C83.1772 18.1721 82.801 18.581 82.4026 18.9567C82.0152 19.3103 81.3402 19.7854 81.3402 19.7854C80.7205 20.1942 80.0676 20.5809 79.3814 20.9235C79.3814 20.9235 79.2818 20.9566 79.2265 20.9898C79.2486 21.034 79.2818 21.0892 79.304 21.1334C79.3814 21.2992 79.4589 21.476 79.5253 21.6528C78.3633 22.2052 77.1017 22.6583 75.7738 22.9897C70.5947 24.2825 65.6923 23.3765 62.8261 20.8572C61.4759 19.6749 60.5796 18.1169 60.3029 16.2716C60.3029 16.2385 60.3029 16.2053 60.2918 16.1832C60.2918 16.139 60.314 16.128 60.3361 16.128C60.3582 16.128 60.3693 16.139 60.3914 16.1722C60.3914 16.1943 60.4025 16.2164 60.4025 16.2274C60.7456 17.5644 61.4428 18.7357 62.4166 19.708C65.2164 22.4815 70.2738 23.5864 75.6188 22.2936C76.0283 22.1942 76.4267 22.0837 76.814 21.9511C77.6551 21.6859 78.4629 21.3544 79.2265 20.9898C79.0605 20.6914 78.8724 20.4042 78.651 20.139C77.0685 20.8903 75.2758 21.4318 73.4056 21.6749C72.1551 21.8406 70.9267 21.8627 69.7536 21.7522C66.5886 21.4539 63.8331 20.2274 62.151 18.36C61.0665 17.1666 60.4357 15.7081 60.4136 14.0728C60.4136 14.0286 60.4136 13.9844 60.4136 13.9402C60.4136 13.896 60.4136 13.8628 60.4136 13.8186C60.4136 13.7634 60.4578 13.7523 60.491 13.7523C60.5132 13.7523 60.5353 13.7634 60.5464 13.7855C60.5464 13.8297 60.5464 13.8628 60.5574 13.907C60.7345 15.2109 61.2657 16.3711 62.0625 17.3655C63.1248 18.6694 64.6631 19.6749 66.5222 20.2826C68.7466 21.0119 71.4136 21.1666 74.2798 20.6141C75.5967 20.371 76.8583 19.9843 78.0203 19.5091C77.7104 19.244 77.3673 19.0119 77.0021 18.8241C75.6852 19.4097 74.1913 19.8185 72.5756 19.9732C69.3552 20.3047 66.3341 19.6196 64.1762 18.2716C63.3462 17.7523 62.6379 17.1335 62.0957 16.4263C61.3542 15.465 60.9226 14.349 60.9116 13.1336C60.9005 12.4485 61.0112 11.7855 61.2436 11.1446C61.2436 11.1225 61.2546 11.1004 61.2657 11.0783C61.2878 11.0562 61.2989 11.0341 61.321 11.0452C61.3432 11.0452 61.3542 11.0783 61.3542 11.1115C61.3542 11.1336 61.3542 11.1557 61.3432 11.1778C61.2325 11.6861 61.1993 12.2164 61.2325 12.7468C61.321 13.7302 61.6641 14.6473 62.2285 15.4429C62.3502 15.6087 62.483 15.7854 62.6158 15.9401C64.6963 18.3489 68.813 19.6196 73.151 18.813C73.9699 18.6804 74.7557 18.4926 75.4971 18.2495C74.8221 18.0948 74.1027 18.0617 73.3724 18.1611C73.3724 18.1611 72.1883 18.3158 71.7013 18.4152C71.6017 18.4263 71.4579 18.4484 71.3804 18.4594H71.3472C70.65 18.5257 68.4921 18.6473 66.2456 17.8407C66.2456 17.8407 63.7224 16.9898 62.6047 15.0672C62.6047 15.0672 62.3613 14.7136 62.7154 14.2164C63.0474 13.7855 63.4236 13.3877 63.822 13.001C64.2094 12.6474 64.8844 12.1722 64.8844 12.1722C65.4931 11.7634 66.157 11.3767 66.8432 11.0341C66.8432 11.0341 66.9428 11.001 66.9981 10.9678C66.976 10.9236 66.9428 10.8684 66.9206 10.8242C66.8432 10.6585 66.7657 10.4817 66.6993 10.3049C67.8613 9.75239 69.1229 9.29936 70.4508 8.96787C75.6299 7.67508 80.5323 8.58114 83.3985 11.1004C84.7486 12.2938 85.6561 13.8297 85.9217 15.686C85.9217 15.7191 85.9217 15.7523 85.9328 15.7744C85.9328 15.8186 85.9106 15.8296 85.8885 15.8296L85.8774 15.8738Z" fill="#009ADE"/>
<path d="M94.1782 18.238L92.9609 15.8734C94.2668 15.6082 95.4398 15.1994 96.4358 14.6359C97.4096 14.0724 98.2396 13.3983 98.9147 12.5917C99.5676 11.8072 100.066 10.9453 100.409 9.95088C100.741 8.97852 100.907 7.92881 100.907 6.80176H104.946C104.946 7.92881 105.101 8.96747 105.444 9.95088C105.743 10.9453 106.252 11.8183 106.916 12.5917C107.569 13.3983 108.41 14.0724 109.417 14.6359C110.391 15.1994 111.541 15.6082 112.869 15.8734L111.652 18.238C109.716 18.0612 108 17.5198 106.528 16.658C105.012 15.8071 103.817 14.7464 102.899 13.4867C101.991 14.7464 100.774 15.8071 99.2909 16.658C97.7748 17.5198 96.0706 18.0723 94.1672 18.238H94.1782ZM92.9609 21.8402H112.781V24.5915H92.9609V21.8402Z" fill="#201747"/>
<path d="M114.484 21.8291H122.375V19.0999H126.414V21.8291H134.304V24.5805H114.484V21.8291ZM118.457 10.636H122.496V15.4757H126.281V10.636H130.32V15.4757H133.098V18.227H115.668V15.4757H118.446V10.636H118.457ZM132.888 9.5531H115.901V6.80176H132.888V9.5531Z" fill="#201747"/>
<path d="M136.01 21.8292H155.83V24.5805H136.01V21.8292ZM137.072 7.87358H143.856V5.81836H147.917V7.87358H154.823V10.6249H148.504C148.747 11.1 149.09 11.5973 149.522 12.1166C149.953 12.658 150.474 13.1774 151.104 13.6525C151.713 14.1718 152.432 14.6248 153.229 15.0226C154.015 15.4315 154.9 15.7409 155.907 15.9287L154.712 18.2049C153.76 18.1165 152.842 17.9397 152.001 17.6635C151.138 17.3983 150.33 17.0557 149.588 16.6469C148.825 16.2602 148.15 15.7851 147.541 15.2547C146.932 14.7574 146.39 14.216 145.958 13.6304C145.505 14.216 144.985 14.7574 144.376 15.2547C143.767 15.774 143.092 16.2491 142.351 16.6469C141.609 17.0557 140.813 17.4093 139.96 17.6635C139.097 17.9508 138.179 18.1165 137.227 18.2049L136.032 15.9287C136.984 15.7298 137.88 15.4315 138.71 15.0226C139.496 14.6359 140.204 14.1718 140.835 13.6525C141.443 13.1774 141.964 12.658 142.395 12.1166C142.827 11.5973 143.181 11.1 143.435 10.6249H137.072V7.87358Z" fill="#201747"/>
<path d="M176.545 25.376H158.252V19.9507H172.484V19.4314H158.252V17.0005H162.557V16.4591H157.301V13.8182H171.754V16.4591H166.608V17.0005H176.556V22.4037H162.325V22.9451H176.556V25.376H176.545ZM162.591 13.1884C161.893 13.1884 161.285 13.1442 160.742 13.0558C160.178 12.9674 159.724 12.8127 159.326 12.5807C158.939 12.3597 158.629 12.0392 158.418 11.6304C158.197 11.2437 158.098 10.7243 158.098 10.0724C158.098 9.4647 158.208 8.94537 158.418 8.51444C158.64 8.1056 158.939 7.75202 159.326 7.49788C159.713 7.25479 160.178 7.08905 160.742 6.97855C161.285 6.89015 161.893 6.82386 162.591 6.82386H166.519C167.194 6.82386 167.803 6.89015 168.367 6.97855C168.909 7.08905 169.385 7.26584 169.784 7.49788C170.149 7.76307 170.459 8.1056 170.669 8.51444C170.868 8.94537 170.968 9.4647 170.968 10.0724C170.968 10.7243 170.857 11.2437 170.669 11.6304C170.448 12.0392 170.149 12.3707 169.762 12.5807C169.374 12.8238 168.898 12.9674 168.345 13.0558C167.781 13.1442 167.172 13.1884 166.519 13.1884H162.591ZM166.375 10.6028C166.674 10.6028 166.873 10.5586 167.006 10.4481C167.095 10.3597 167.161 10.2271 167.161 10.0172C167.161 9.60834 166.895 9.38735 166.375 9.38735H162.745C162.203 9.38735 161.938 9.60834 161.938 10.0172C161.938 10.2382 161.982 10.3597 162.115 10.4481C162.225 10.5586 162.447 10.6028 162.745 10.6028H166.375ZM171.311 8.75753H172.484V6.80176H176.545V16.4591H172.484V11.5089H171.311V8.75753Z" fill="#201747"/>
<path d="M179.047 21.8295H198.867V24.5808H179.047V21.8295ZM197.65 18.3378H180.242V6.82422H197.65V9.57556H184.204V15.5865H197.65V18.3378Z" fill="#201747"/>
</svg>
